<svg id="Layer_1" data-name="Layer 1" xmlns="http://www.w3.org/2000/svg" xmlns:xlink="http://www.w3.org/1999/xlink" viewBox="0 0 559.84 407.75"><defs><style>.cls-1{fill:none;}.cls-2{clip-path:url(#clip-path);}.cls-3{fill:#131615;}.cls-4{fill:#2f2e41;}.cls-5{fill:#8fbc8b;}.cls-6{fill:#3f3d56;}.cls-7{fill:#3a4c38;}.cls-8{opacity:0.2;isolation:isolate;}.cls-9{fill:#ffcece;}.cls-10{fill:#e5e5e5;}.cls-11,.cls-13{fill:#fff;}.cls-12{fill:#6c63ff;}.cls-13{font-size:15px;font-family:MVBoli, MV Boli;}</style><clipPath id="clip-path" transform="translate(-170.61 -97.29)"><rect id="SVGID" class="cls-1" x="-69.87" width="852.99" height="541"/></clipPath></defs><g class="cls-2"><path class="cls-3" d="M170.61,326.76a253.77,253.77,0,0,0,21.26,26H709.16a235.31,235.31,0,0,0,21.28-26Z" transform="translate(-170.61 -97.29)"/><path class="cls-4" d="M456.46,267.7v62.65h68.83V267.7a1.55,1.55,0,0,0-.63-1.27,3.9,3.9,0,0,0-1.75-.77,2.59,2.59,0,0,0-.92-.11H459.75a4.59,4.59,0,0,0-1.24.2,3.08,3.08,0,0,0-1.1.49,2.06,2.06,0,0,0-.79.68A1.28,1.28,0,0,0,456.46,267.7ZM472,271.77a11.2,11.2,0,0,1,4-8.52,14.27,14.27,0,0,1,18.76,0,11.27,11.27,0,0,1,4,8.52v18.61a11.16,11.16,0,0,1-4,8.49,14.24,14.24,0,0,1-18.76,0,11.13,11.13,0,0,1-4-8.49Z" transform="translate(-170.61 -97.29)"/><path class="cls-3" d="M342.11,105.34V273.23A7.88,7.88,0,0,0,344.8,279a9.6,9.6,0,0,0,6.59,2.29H639.1a10.26,10.26,0,0,0,6.59-2.29,7.9,7.9,0,0,0,2.72-5.75V105.34c-.08-4.52-4.15-8.12-9.09-8H351.39a10.32,10.32,0,0,0-6.59,2.29A7.62,7.62,0,0,0,342.11,105.34Z" transform="translate(-170.61 -97.29)"/><path class="cls-5" d="M348.7,107.42V271.15a3.65,3.65,0,0,0,1.53,3,5.27,5.27,0,0,0,3.55,1.3h283a5.32,5.32,0,0,0,3.57-1.3,3.91,3.91,0,0,0,1.51-3V107.42a3.69,3.69,0,0,0-1.51-3,5.36,5.36,0,0,0-3.57-1.29H353.59A5.31,5.31,0,0,0,350,104.4,4.26,4.26,0,0,0,348.7,107.42Z" transform="translate(-170.61 -97.29)"/><path class="cls-4" d="M453,342.62a3.68,3.68,0,0,0,1,.73,3.92,3.92,0,0,0,1.36.27h168.3a5.06,5.06,0,0,0,1.34-.27,2.52,2.52,0,0,0,1-.73,3.23,3.23,0,0,0,.68-1,1.46,1.46,0,0,0,0-1.16l-2.55-10.76a2.92,2.92,0,0,0-.66-1.14,5.72,5.72,0,0,0-1.19-.72,2.74,2.74,0,0,0-1-.14h-163a2.58,2.58,0,0,0-1,.14,3.07,3.07,0,0,0-1.19.72,2.64,2.64,0,0,0-.68,1.14l-2.53,10.76a2.53,2.53,0,0,0,0,1.16.61.61,0,0,0,.06.93Z" transform="translate(-170.61 -97.29)"/><path class="cls-6" d="M615.21,332.15h4.25c.32,0,.49-.14.49-.43v-1.9c0-.29-.17-.43-.49-.43h-4.25c-.32,0-.49.14-.49.43v1.87C614.72,332,614.89,332.15,615.21,332.15Z" transform="translate(-170.61 -97.29)"/><path class="cls-6" d="M604.9,332.15h4.23c.34,0,.51-.14.51-.43v-1.9c0-.29-.17-.43-.51-.43H604.9c-.33,0-.5.14-.5.43v1.87C604.4,332,604.57,332.15,604.9,332.15Z" transform="translate(-170.61 -97.29)"/><path class="cls-6" d="M594.41,332.15h4.23c.34,0,.51-.14.51-.43v-1.9c0-.29-.17-.43-.51-.43h-4.23c-.34,0-.51.14-.51.43v1.87A.5.5,0,0,0,594.41,332.15Z" transform="translate(-170.61 -97.29)"/><path class="cls-6" d="M584.1,332.15h4.23c.34,0,.51-.14.51-.43v-1.9c0-.29-.17-.43-.51-.43H584.1c-.34,0-.51.14-.51.43v1.87C583.59,332,583.76,332.15,584.1,332.15Z" transform="translate(-170.61 -97.29)"/><path class="cls-6" d="M573.78,332.15H578c.34,0,.51-.14.51-.43v-1.9c0-.29-.17-.43-.51-.43h-4.23c-.34,0-.51.14-.51.43v1.87C573.27,332,573.44,332.15,573.78,332.15Z" transform="translate(-170.61 -97.29)"/><path class="cls-6" d="M563.3,332.15h4.23c.34,0,.51-.14.51-.43v-1.9c0-.29-.17-.43-.51-.43H563.3c-.34,0-.51.14-.51.43v1.87A.5.5,0,0,0,563.3,332.15Z" transform="translate(-170.61 -97.29)"/><path class="cls-6" d="M553,332.15h4.23c.33,0,.5-.14.5-.43v-1.9c0-.29-.17-.43-.5-.43H553c-.34,0-.51.14-.51.43v1.87C552.47,332,552.64,332.15,553,332.15Z" transform="translate(-170.61 -97.29)"/><path class="cls-6" d="M542.67,332.15h4.23c.32,0,.49-.14.49-.43v-1.9c0-.29-.17-.43-.49-.43h-4.23c-.34,0-.51.14-.51.43v1.87A.47.47,0,0,0,542.67,332.15Z" transform="translate(-170.61 -97.29)"/><path class="cls-6" d="M532.18,332.15h4.22c.34,0,.51-.14.51-.43v-1.9c0-.29-.17-.43-.51-.43h-4.22c-.34,0-.51.14-.51.43v1.87A.5.5,0,0,0,532.18,332.15Z" transform="translate(-170.61 -97.29)"/><path class="cls-6" d="M521.85,332.15h4.23c.34,0,.51-.14.51-.43v-1.9c0-.29-.17-.43-.51-.43h-4.23c-.34,0-.49.14-.49.43v1.87A.49.49,0,0,0,521.85,332.15Z" transform="translate(-170.61 -97.29)"/><path class="cls-6" d="M511.54,332.15h4.23c.34,0,.51-.14.51-.43v-1.9c0-.29-.17-.43-.51-.43h-4.23c-.34,0-.51.14-.51.43v1.87C511,332,511.2,332.15,511.54,332.15Z" transform="translate(-170.61 -97.29)"/><path class="cls-6" d="M501.22,332.15h4.23c.34,0,.51-.14.51-.43v-1.9c0-.29-.17-.43-.51-.43h-4.23c-.34,0-.51.14-.51.43v1.87C500.71,332,500.9,332.15,501.22,332.15Z" transform="translate(-170.61 -97.29)"/><path class="cls-6" d="M490.74,332.15H495c.34,0,.51-.14.51-.43v-1.9c0-.29-.17-.43-.51-.43h-4.23c-.34,0-.51.14-.51.43v1.87A.51.51,0,0,0,490.74,332.15Z" transform="translate(-170.61 -97.29)"/><path class="cls-6" d="M480.42,332.15h4.23c.34,0,.51-.14.51-.43v-1.9c0-.29-.17-.43-.51-.43h-4.23c-.34,0-.51.14-.51.43v1.87C479.91,332,480.13,332.15,480.42,332.15Z" transform="translate(-170.61 -97.29)"/><path class="cls-6" d="M470.11,332.15h4.23c.32,0,.49-.14.49-.43v-1.9c0-.29-.17-.43-.49-.43h-4.23c-.34,0-.51.14-.51.43v1.87C469.6,332,469.77,332.15,470.11,332.15Z" transform="translate(-170.61 -97.29)"/><path class="cls-6" d="M459.62,332.15h4.22c.34,0,.51-.14.51-.43v-1.9c0-.29-.17-.43-.51-.43h-4.22c-.34,0-.51.14-.51.43v1.87A.5.5,0,0,0,459.62,332.15Z" transform="translate(-170.61 -97.29)"/><path class="cls-6" d="M615.38,336.6h4.23c.34,0,.51-.15.51-.43v-1.86c0-.3-.17-.43-.51-.43h-4.23c-.32,0-.49.13-.49.43v1.86a.4.4,0,0,0,.39.43Z" transform="translate(-170.61 -97.29)"/><path class="cls-6" d="M604.9,336.6h4.23c.34,0,.51-.15.51-.43v-1.86c0-.3-.17-.43-.51-.43H604.9c-.33,0-.5.13-.5.43v1.86A.5.5,0,0,0,604.9,336.6Z" transform="translate(-170.61 -97.29)"/><path class="cls-6" d="M594.58,336.6h4.23c.34,0,.51-.15.51-.43v-1.86c0-.3-.17-.43-.51-.43h-4.23c-.34,0-.51.13-.51.43v1.86C594.07,336.45,594.24,336.6,594.58,336.6Z" transform="translate(-170.61 -97.29)"/><path class="cls-6" d="M584.27,336.6h4.23c.34,0,.51-.15.51-.43v-1.86c0-.3-.17-.43-.51-.43h-4.23c-.34,0-.51.13-.51.43v1.86C583.76,336.45,584,336.6,584.27,336.6Z" transform="translate(-170.61 -97.29)"/><path class="cls-6" d="M573.78,336.6H578c.34,0,.51-.15.51-.43v-1.86c0-.3-.17-.43-.51-.43h-4.23c-.34,0-.51.13-.51.43v1.86A.51.51,0,0,0,573.78,336.6Z" transform="translate(-170.61 -97.29)"/><path class="cls-6" d="M563.47,336.6h4.23c.34,0,.51-.15.51-.43v-1.86c0-.3-.17-.43-.51-.43h-4.23c-.34,0-.51.13-.51.43v1.86C563,336.45,563.19,336.6,563.47,336.6Z" transform="translate(-170.61 -97.29)"/><path class="cls-6" d="M553.15,336.6h4.23c.33,0,.5-.15.5-.43v-1.86c0-.3-.17-.43-.5-.43h-4.23c-.34,0-.51.13-.51.43v1.86C552.64,336.45,552.81,336.6,553.15,336.6Z" transform="translate(-170.61 -97.29)"/><path class="cls-6" d="M542.67,336.6h4.23a.43.43,0,0,0,.49-.34v-1.95c0-.3-.17-.43-.49-.43h-4.23c-.34,0-.51.13-.51.43v1.86A.52.52,0,0,0,542.67,336.6Z" transform="translate(-170.61 -97.29)"/><path class="cls-6" d="M532.35,336.6h4.22c.34,0,.51-.15.51-.43v-1.86c0-.3-.17-.43-.51-.43h-4.22c-.34,0-.51.13-.51.43v1.86A.5.5,0,0,0,532.35,336.6Z" transform="translate(-170.61 -97.29)"/><path class="cls-6" d="M522,336.6h4.23c.34,0,.51-.15.51-.43v-1.86c0-.3-.17-.43-.51-.43H522c-.34,0-.51.13-.51.43v1.86C521.51,336.45,521.66,336.6,522,336.6Z" transform="translate(-170.61 -97.29)"/><path class="cls-6" d="M511.71,336.6H516c.34,0,.51-.15.51-.43v-1.86c0-.3-.17-.43-.51-.43h-4.23c-.34,0-.51.13-.51.43v1.86C511.2,336.45,511.37,336.6,511.71,336.6Z" transform="translate(-170.61 -97.29)"/><path class="cls-6" d="M501.22,336.6h4.23c.34,0,.51-.15.51-.43v-1.86c0-.3-.17-.43-.51-.43h-4.23c-.34,0-.51.13-.51.43v1.86A.51.51,0,0,0,501.22,336.6Z" transform="translate(-170.61 -97.29)"/><path class="cls-6" d="M490.91,336.6h4.33c.33,0,.5-.15.5-.43v-1.86c0-.3-.17-.43-.5-.43H491c-.34,0-.51.13-.51.43v1.86C490.4,336.45,490.57,336.6,490.91,336.6Z" transform="translate(-170.61 -97.29)"/><path class="cls-6" d="M480.59,336.6h4.23c.34,0,.51-.15.51-.43v-1.86c0-.3-.17-.43-.51-.43h-4.23c-.34,0-.51.13-.51.43v1.86A.44.44,0,0,0,480.59,336.6Z" transform="translate(-170.61 -97.29)"/><path class="cls-6" d="M470.11,336.6h4.23a.43.43,0,0,0,.49-.34v-1.95c0-.3-.17-.43-.49-.43h-4.23c-.34,0-.51.13-.51.43v1.86A.52.52,0,0,0,470.11,336.6Z" transform="translate(-170.61 -97.29)"/><path class="cls-6" d="M459.79,336.6H464c.34,0,.51-.15.51-.43v-1.86c0-.3-.17-.43-.51-.43h-4.22c-.34,0-.51.13-.51.43v1.86C459.37,336.45,459.37,336.6,459.79,336.6Z" transform="translate(-170.61 -97.29)"/><path class="cls-6" d="M529.31,342.05h40.41c.34,0,.51-.14.51-.43v-1.86c0-.3-.17-.43-.51-.43H529.31c-.34,0-.51.13-.51.43v1.86C528.8,341.9,529,342.05,529.31,342.05Z" transform="translate(-170.61 -97.29)"/><path class="cls-3" d="M362.92,127H627.6a1,1,0,0,0,.68-.27,1.06,1.06,0,0,0,.33-.59.69.69,0,0,0-.33-.57,1.53,1.53,0,0,0-.68-.29H362.92a1,1,0,0,0-.68.29,1,1,0,0,0-.34.57.75.75,0,0,0,.34.59A1.36,1.36,0,0,0,362.92,127Z" transform="translate(-170.61 -97.29)"/><path class="cls-3" d="M622.78,120.83a5.68,5.68,0,0,0,5.83-5.57,6,6,0,0,0-11.92.12,5.65,5.65,0,0,0,5.84,5.45A2.08,2.08,0,0,0,622.78,120.83Z" transform="translate(-170.61 -97.29)"/><path class="cls-3" d="M601.47,120.83a5.69,5.69,0,0,0,5.83-5.57,6,6,0,0,0-11.93.12,5.66,5.66,0,0,0,5.85,5.45A2.08,2.08,0,0,0,601.47,120.83Z" transform="translate(-170.61 -97.29)"/><path class="cls-3" d="M580.16,120.83a6,6,0,1,0-.25,0A2.09,2.09,0,0,0,580.16,120.83Z" transform="translate(-170.61 -97.29)"/><path class="cls-3" d="M359.25,111.66v.43a.46.46,0,0,0,.17.28c.17.15.17.15.34.15s.33.14.5.14h15.11a2,2,0,0,0,.85-.29.92.92,0,0,0,0-1.39l0,0a1.5,1.5,0,0,0-.85-.29H360.26a2.22,2.22,0,0,0-.84.29C359.37,111.18,359.32,111.42,359.25,111.66Z" transform="translate(-170.61 -97.29)"/><path class="cls-3" d="M359.25,115.38v.44a.51.51,0,0,0,.17.29c.17.14.17.14.34.14s.33.13.5.13h15.11a2,2,0,0,0,.85-.27,1,1,0,0,0,0-1.42l0,0a1.54,1.54,0,0,0-.85-.28H360.26a2,2,0,0,0-.84.28A5.8,5.8,0,0,1,359.25,115.38Z" transform="translate(-170.61 -97.29)"/><path class="cls-3" d="M359.25,119.11a1,1,0,0,0,.34.72,1.39,1.39,0,0,0,.84.3h15.11a2,2,0,0,0,.84-.3.92.92,0,0,0,.05-1.39l-.05,0a1.35,1.35,0,0,0-.88-.22H360.4a.7.7,0,0,0-.51.14.59.59,0,0,0-.34.15c-.17.14-.17.14-.17.28S359.25,119,359.25,119.11Z" transform="translate(-170.61 -97.29)"/><path class="cls-7" d="M229.37,452.62q1,.39,1.89.87A283.07,283.07,0,0,0,278.62,469c1.51-14.64,3-40.34,4.39-56.26a92.28,92.28,0,0,1,1.19-10.06,15.56,15.56,0,0,1,.83-3.86v3.78l-.17,10.05-.83,57.4a338.64,338.64,0,0,0,68.33,8.47H361A345.62,345.62,0,0,0,433,470.92c-.51-14.48-1-39.89-1.53-58.64-.17-3.58-.17-7-.34-10a113.45,113.45,0,0,0-.68-12.63,1.77,1.77,0,0,1,.34.86,67.43,67.43,0,0,1,2,11.77c.34,3,.66,6.45,1,10,1.89,19.39,3.89,45.79,6.1,56.92a301,301,0,0,0,36.18-10.76c6.27-2.3,12.37-4.59,18.28-7.32-1.19-6.45-2.36-13.62-3.55-21.23-1-5.88-1.89-11.78-2.87-17.66-1.53-9.17-24.71-72.9-26.05-75.33-1.19-2-2.38-4-3.55-5.88-2.72-4.32-5.08-7.9-6.78-10.06A57.47,57.47,0,0,0,421.43,301H421l-.17.14-21.1-5.48-3-.86-2-.57-7.29-4.88-4.06-2.59-3.77-2.45-7.27-4.86-45.3,2.43-8.78,18.37-19.8,6.31-.68.14-.34-.14H297a56.12,56.12,0,0,0-30.2,19.95c-1,1.3-2.21,2.87-3.57,4.88-1.17,1.73-2.36,3.73-3.77,5.88-1.89,3-4.06,6.59-6.25,10.35l-1.53,2.59c-.85,1.57-1.89,3.16-2.87,4.86-2.21,3.88-4.57,7.76-6.78,11.78-2,3.45-4.05,10.76-5.9,19.94-1.7,7.61-3.21,16.64-4.74,26-2,12.08.17,26.7-1.7,37.76A9.79,9.79,0,0,1,229.37,452.62Z" transform="translate(-170.61 -97.29)"/><path class="cls-5" d="M213.3,394c3.23,37.6-.16,54.1,17.26,85a326.64,326.64,0,0,0,49.23,16.37c1.68.41,3.54.84,5.24,1.27A338.64,338.64,0,0,0,353.36,505H362A344.2,344.2,0,0,0,434,497.43c2.36-.43,4.72-1,7.1-1.57a304.71,304.71,0,0,0,36.18-10.76c6.27-2.29,12.37-4.59,18.28-7.33l4-1.72c7-10.49,10.84-23.11,10.84-38.46C505.75,411.34,223.78,371.15,213.3,394Z" transform="translate(-170.61 -97.29)"/><path class="cls-8" d="M213.73,392.85c-.17-2.29-.34-4.73-.51-7.18C223.71,363,505.8,403.18,510.57,429.45c0,2.45-.17,4.74-.34,7C498.57,410.51,230.64,372.34,213.73,392.85Z" transform="translate(-170.61 -97.29)"/><path class="cls-3" d="M204.18,324.9a6.38,6.38,0,0,0,2.55,2.88,7.57,7.57,0,0,0,3.89,1l27.39-.57a7.61,7.61,0,0,0,3.91-1.16,6.39,6.39,0,0,0,2.36-3l3.88-35.87a9.06,9.06,0,0,0,4.4.72,9.71,9.71,0,0,0,6.93-2.72,7.63,7.63,0,0,0,2.72-6.17,8,8,0,0,0-3.06-6,11.19,11.19,0,0,0-7.1-2.45,7.91,7.91,0,0,0-1.88.14,6.5,6.5,0,0,0-2.38-1.44,9.47,9.47,0,0,0-2.7-.43l-42.28,1a2.35,2.35,0,0,0-1,.16,7.12,7.12,0,0,0-4.36,2.72,3.79,3.79,0,0,0-.85,2.3,4,4,0,0,0,.34,2.43Zm44.66-39.33,2.7-8.62a4.54,4.54,0,0,0,0-3h.34a8,8,0,0,1,5.08,1.72,5.8,5.8,0,0,1,2.19,4.32,6.11,6.11,0,0,1-2,4.44,7.72,7.72,0,0,1-5.08,1.87A7.36,7.36,0,0,1,248.84,285.57Z" transform="translate(-170.61 -97.29)"/><path class="cls-3" d="M203.24,272.36c.85,4.45,11,7.61,23.16,7,11.17-.43,20.31-3.86,22-7.88a7.53,7.53,0,0,0-1.89-.3l-42.28,1C203.92,272.22,203.58,272.36,203.24,272.36Z" transform="translate(-170.61 -97.29)"/><path class="cls-9" d="M326.42,258.92a62,62,0,0,0,38,22.66,67.19,67.19,0,0,0,45-6.74c13.13-7,22.5-18.62,25.88-32.15A46.08,46.08,0,0,0,426.67,204l-.51-.57a62.46,62.46,0,0,0-37.88-21.82,68.57,68.57,0,0,0-44.49,7c-12.89,7.08-22.1,18.62-25.54,32a45.92,45.92,0,0,0,8.13,38.33Z" transform="translate(-170.61 -97.29)"/><path class="cls-3" d="M388,279.59c-5.4-3.72-11.15-7.88-13.34-13.62s1.17-13.35,7.94-14.07c4.06-.44,8.46,1.58,12.35.15,5.25-1.88,5.42-8.19,4.74-13.07L396.77,219c17.08,3.59-3.55.86,10.32-8.33,5.42-3.59,10.33-8.31,11.5-14.19a12.27,12.27,0,0,0-9.44-14.08c-3.38-.7-6.76,0-10.13-.86a10.83,10.83,0,0,1-5.08-3,7.18,7.18,0,0,1-2-5,7.78,7.78,0,0,1,1.89-5,10.44,10.44,0,0,1,4.9-3l-17.42,4.74.68-9.63c-2.21,3.89-7,6-11.83,7.2s-9.82,1.14-14.73,1.86c-23.67,3.16-43,21.52-44.47,42a25.57,25.57,0,0,0-12.68,4.72,19.39,19.39,0,0,0-7.29,10.2c-1.68,6.6.68,13.48,3.89,19.8A88.48,88.48,0,0,0,323.17,278a43.26,43.26,0,0,0,12.52,6.32c4.73,1.13,49.55.27,53.43-2" transform="translate(-170.61 -97.29)"/></g><path class="cls-10" d="M595,179.61H463.45c-2.18,0-4-1.44-4-3.2V140.56c0-1.76,1.78-3.2,4-3.2H595c2.19,0,4,1.44,4,3.2v35.85C599,178.17,597.2,179.61,595,179.61Z" transform="translate(-170.61 -97.29)"/><rect class="cls-11" x="309.49" y="49.67" width="34.87" height="3.2"/><ellipse class="cls-12" cx="390.33" cy="51.59" rx="2.38" ry="1.92"/><ellipse class="cls-12" cx="398.25" cy="51.59" rx="2.38" ry="1.92"/><ellipse class="cls-12" cx="406.18" cy="51.59" rx="2.38" ry="1.92"/><path class="cls-10" d="M595,225.05H463.45c-2.18,0-4-1.43-4-3.2V186c0-1.77,1.78-3.2,4-3.2H595c2.19,0,4,1.43,4,3.2v35.84C599,223.62,597.2,225.05,595,225.05Z" transform="translate(-170.61 -97.29)"/><rect class="cls-11" x="309.49" y="95.12" width="34.87" height="3.2"/><ellipse class="cls-12" cx="390.33" cy="97.04" rx="2.38" ry="1.92"/><ellipse class="cls-12" cx="398.25" cy="97.04" rx="2.38" ry="1.92"/><ellipse class="cls-12" cx="406.18" cy="97.04" rx="2.38" ry="1.92"/><path class="cls-10" d="M595,270.5H463.45c-2.18,0-4-1.43-4-3.2V231.45c0-1.76,1.78-3.19,4-3.2H595c2.19,0,4,1.44,4,3.2V267.3C599,269.07,597.2,270.5,595,270.5Z" transform="translate(-170.61 -97.29)"/><rect class="cls-11" x="309.49" y="140.56" width="34.87" height="3.2"/><ellipse class="cls-12" cx="390.33" cy="142.48" rx="2.38" ry="1.92"/><ellipse class="cls-12" cx="398.25" cy="142.48" rx="2.38" ry="1.92"/><ellipse class="cls-12" cx="406.18" cy="142.48" rx="2.38" ry="1.92"/><text class="cls-13" transform="translate(51.19 196.13)">T<tspan x="0" y="18">N</tspan></text></svg>