<svg id="Layer_1" data-name="Layer 1" xmlns="http://www.w3.org/2000/svg" viewBox="0 0 569.45 458.16"><defs><style>.cls-1{fill:#e6e6e6;}.cls-2{fill:#3f3d56;}.cls-3{fill:#fff;}.cls-4{fill:#ffb6b6;}.cls-5{fill:#8fbc8b;}.cls-6{fill:#2f2e41;}.cls-7{fill:#131615;}</style></defs><path class="cls-1" d="M558,399.3H29.51c-11.3,0-20.5-8.73-20.5-19.47V319.41H578.46v60.42C578.46,390.57,569.27,399.3,558,399.3Z" transform="translate(-9.01 -24.4)"/><rect class="cls-1" x="218.36" y="364.79" width="134.76" height="91.44"/><rect class="cls-1" x="210.25" y="444.68" width="150.98" height="11.55"/><path class="cls-2" d="M578,344.92H9V37.77C9,30.4,15.32,24.4,23.08,24.4H563.89c7.76,0,14.07,6,14.07,13.37V344.92Z" transform="translate(-9.01 -24.4)"/><rect class="cls-3" x="13.17" y="13.96" width="542.09" height="289.71"/><path id="uuid-25324785-d0f2-4f1c-ad19-f4bb5410ff47-213" class="cls-4" d="M127.17,211c4.15-3.26,9.28-3.87,11.46-1.36s.59,7.18-3.57,10.44a13.69,13.69,0,0,1-5.68,2.72l-17.76,13.58-6.54-8,18.21-12.54A12.84,12.84,0,0,1,127.17,211Z" transform="translate(-9.01 -24.4)"/><path class="cls-5" d="M24.5,241.69c0-.6,0-5.84,4.08-9.15,4.69-3.81,11.31-2.27,13.64-1.73,5.36,1.25,5.8,3.44,10.84,5.68,9.43,4.21-2.39,2.06,3.22.71,1.95-.47,29.88-2.31,36.83-6.37,13.52-7.91,22.73-12.7,22.73-12.7l6,11.44a104.5,104.5,0,0,1-21,20C88.33,258.34,82,262.71,72.49,264.4c-.83.14-21.06,3.42-37.36-8.14-3.72-2.64-10.53-7.47-10.63-14.57Z" transform="translate(-9.01 -24.4)"/><ellipse class="cls-4" cx="34.17" cy="168.26" rx="20.98" ry="19.93"/><polygon class="cls-4" points="198.48 302.16 176.88 281.15 165.72 292.2 181.82 312.34 197.79 314.08 198.48 302.16"/><path class="cls-6" d="M84.12,287.16c1.26.1,5.28.87,9.11-1.14a12.14,12.14,0,0,0,4.42-4c5.63-8,27.24-20.56,46.63-21.33,4.4-.17,7.29.31,9.91,1.61,3.73,1.85,5.22,4.49,9.95,10.68,2.58,3.39,5.44,6.58,8.06,9.94,15.32,19.7,21.13,21.24,20.54,27.56-.66,7-8.62,13.65-13.9,12.88-2.17-.31-3-1.74-5.9-4.63-8.48-8.49-12-6.93-18-13.43-7-7.59-6.13-13.88-9.81-14.13-3.41-.22-4.86,5.15-12.14,12.28-3.33,3.26-5.7,4.76-12.93,9.53-28.16,18.55-28.61,19.85-34.29,21.33-2.48.65-20.13,5.24-26.41-2.07-9.84-11.44,13.4-45.93,24.79-45Z" transform="translate(-9.01 -24.4)"/><path class="cls-6" d="M200.89,331.31c1.59-.68,3.45-1.47,4-3.29a4.18,4.18,0,0,0-.66-3.81c-1-1.21-2.39-1.37-2.33-1.59s3.46-.19,7.17,1.05A29.69,29.69,0,0,1,217,328c3.23,2.4,2.79,2.88,4.82,4.26,6.21,4.24,12,.9,15.41,4.87a6.06,6.06,0,0,1,1.3,5.48c-1.09,3.54-6.43,4.75-9.35,5.38-7,1.51-12.33.28-17.89-.61-18.87-3-29.48-.27-30.9-4.42-.27-.79.17-.72,1.63-6.49s1.39-7.26,2.61-7.72c1.84-.68,3.08,2.44,7.72,3.51a13.72,13.72,0,0,0,8.53-.94Z" transform="translate(-9.01 -24.4)"/><polygon class="cls-4" points="160.07 370.89 154.61 341.98 138.85 345.17 140.26 370.43 152.45 380.38 160.07 370.89"/><path class="cls-6" d="M90.28,296.88c1,.76,3.86,3.53,8.22,3.92a13,13,0,0,0,6-1c9.41-3.64,34.69-2.48,51.2,7.23,3.73,2.2,5.84,4.14,7.24,6.62,2,3.51,1.66,6.49,1.92,14.14.14,4.18.62,8.34.79,12.52,1,24.48,4.93,28.85.71,33.76-4.69,5.45-15.2,6.71-19.12,3.25-1.61-1.42-1.46-3.05-2.14-7-2-11.55-5.83-12.13-7-20.73-1.35-10,3.13-14.76.23-16.92-2.68-2-7.06,1.66-17.3,3.68-4.69.92-7.54.9-16.34,1-34.26.34-35.4,1.18-41-.63-2.44-.79-19.75-6.4-20.63-15.8-1.37-14.72,38.24-30.86,47.13-24Z" transform="translate(-9.01 -24.4)"/><path class="cls-6" d="M160.81,395.7c1.71.28,3.72.62,5.29-.57a4.28,4.28,0,0,0,1.7-3.5c-.08-1.52-1.17-2.41-1-2.56s3,1.68,5.31,4.69a26.89,26.89,0,0,1,4,7.79c1.26,3.71.62,3.87,1.48,6.09,2.63,6.83,9.43,7.17,9.87,12.26a6.15,6.15,0,0,1-2.16,5.22c-3,2.34-8.13.51-10.92-.53-6.7-2.49-10.37-6.35-14.44-10-13.83-12.57-24.23-16-23-20.14.24-.79.56-.51,5.18-4.5s5.44-5.27,6.72-5c1.93.41,1.11,3.65,4.31,7a13.46,13.46,0,0,0,7.62,3.78Z" transform="translate(-9.01 -24.4)"/><path class="cls-6" d="M46,196.47c.82-2.77-.21-3.78.84-5,0,0,.42-.5,4.18-1.85h0c-1.11-6.12-.28-7.15-.28-7.15A4.88,4.88,0,0,1,55,181.11c2.77.33,3.26,2.7,5,2.65,2.45-.07,5.37-4.72,4.46-8.74-.74-3.28-3.93-5.72-4.74-5.3s-3.65-1.43-4.74-1.06c-.74.26-4.22-.08-5,.27s-3.33,2.75-3.57,2.45c-1.64-2.08-1.61-2.8-2.56-3.25-1.69-.79-3.53.67-6.69,2.12-6.52,3-8.43,1.2-11.43,3.71-1.53,1.27-2.34,3.69-3.91,8.48-2.19,6.69-3.29,10-2.23,13.24s2.67,2.55,5,7.15c2.61,5.12,1.71,8.1,4.18,9.27,1.91.91,5,.33,6.14-1.32,2-2.83-3.15-6.66-1.4-11.13,1.08-2.74,4.39-4.81,6.42-4.23,2.29.65,2.46,4.56,3.9,4.5,1.23,0,2.09-3,2.23-3.45Z" transform="translate(-9.01 -24.4)"/><path class="cls-5" d="M30.15,215.55c4.29-4.58,21.78.16,23.42,7.41.67,3-1.82,4.25-1.12,7.68,1,5,6.84,4.69,11.16,9.8,6.12,7.27-.19,14.37,6.69,26.49a21.55,21.55,0,0,0,5.3,6.89c5.94,4.85,11.47,3.18,14.5,7.68,2.26,3.36,1.33,7.51,1.11,8.48-.89,4-3.31,4.95-5,8.21-2.83,5.42.38,9.41.56,15.89.23,8.11-4.31,19.36-13.38,23-10.2,4.15-22.49-2.71-28.44-9.53-3.56-4.07-4.59-7.82-6.14-12.45-6.94-20.7-10.86-18.82-16.17-35.23-6.07-18.75-7.26-40.72,0-47.68a20.06,20.06,0,0,0,5.3-6.88c2.27-5.16.3-7.76,2.23-9.8Z" transform="translate(-9.01 -24.4)"/><path id="uuid-91308677-eda7-42a2-9f2e-a07e84038198-214" class="cls-4" d="M93.59,322c3.33,4,3.84,8.9,1.15,10.91s-7.57.39-10.9-3.63a12.51,12.51,0,0,1-2.72-5.46L67.24,306.63l7.17-5.2L88.64,318.2A13.34,13.34,0,0,1,93.59,322Z" transform="translate(-9.01 -24.4)"/><path class="cls-5" d="M42.76,233c.62-.13,6-1.19,10.27,1.93,4.88,3.59,4.64,10.06,4.56,12.33-.19,5.24-2.35,6.1-3.64,11.24C51.54,268.1,56.13,277,58.66,282A51.37,51.37,0,0,0,68,294.56,116.58,116.58,0,0,0,88.6,311.29l-10.46,8.82s-16.65-4.82-27.93-14.48c-11.58-9.91-29.37-45-33.06-53.5-.32-.74,4.18,11.22,12.77-6.3,2-4,5.56-11.31,12.84-12.86Z" transform="translate(-9.01 -24.4)"/><path class="cls-2" d="M310.32,224.75l-12.48-5.62c5.12,6.79,9.53,17.39,11.89,25.82,4-7.85,10.45-17.47,16.83-23.21L313.36,225c8.13-37.85,38.71-65,73.72-65l.49-1.37C351,158.59,318.62,185.38,310.32,224.75Z" transform="translate(-9.01 -24.4)"/><path class="cls-5" d="M367.77,282.41H288.9a5.77,5.77,0,1,1,0-11.52h78.87a5.77,5.77,0,1,1,0,11.52Z" transform="translate(-9.01 -24.4)"/><path class="cls-1" d="M472.71,282.41H393.84a5.77,5.77,0,1,1,0-11.52h78.87a5.77,5.77,0,1,1,0,11.52Z" transform="translate(-9.01 -24.4)"/><path class="cls-2" d="M426,125.64H349.36a3.33,3.33,0,1,1,0-6.65H426a3.33,3.33,0,1,1,0,6.65Z" transform="translate(-9.01 -24.4)"/><path class="cls-2" d="M467.16,161.17H308.22a3.33,3.33,0,1,1,0-6.66H467.16a3.33,3.33,0,1,1,0,6.66Z" transform="translate(-9.01 -24.4)"/><path class="cls-2" d="M43.47,481.48a1.11,1.11,0,0,0,1.14,1.08H542.87a1.08,1.08,0,1,0,0-2.16H44.61A1.11,1.11,0,0,0,43.47,481.48Z" transform="translate(-9.01 -24.4)"/><path class="cls-2" d="M165.82,225.85h-.41c-8-.49-35.3-4.16-51.61-31a5.87,5.87,0,0,1,.66-7l30.2-34.19a6.79,6.79,0,0,1,5.08-2.18c1.34,0,4.5.35,5.11,2.67,3.63,13.68,19,29.76,37.38,31.9,1.86.21,3.36,1.8,4,4.23a5.79,5.79,0,0,1-1.28,5.36l-24.19,27.91a6.52,6.52,0,0,1-5,2.23Zm-16.2-72.92a5.2,5.2,0,0,0-3.85,1.69l-30.2,34.18a4.54,4.54,0,0,0-.51,5.4C131,220.4,157.7,224,165.51,224.47a5.08,5.08,0,0,0,4.14-1.72l24.2-27.91a4.51,4.51,0,0,0,1-4.15c-.38-1.44-1.31-3-2.78-3.21-19-2.2-34.86-18.8-38.6-32.93-.31-1.14-2.13-1.59-3.74-1.62Z" transform="translate(-9.01 -24.4)"/><path class="cls-1" d="M132.11,196l21.77-21.09c1.49-1.44-.84-3.66-2.33-2.22L129.77,193.8c-1.49,1.44.85,3.66,2.34,2.22Z" transform="translate(-9.01 -24.4)"/><path class="cls-1" d="M145.25,202a83.09,83.09,0,0,0,15.51-17.54c1.13-1.72-1.73-3.29-2.85-1.58a80,80,0,0,1-15,16.9c-1.58,1.35.76,3.56,2.34,2.22Z" transform="translate(-9.01 -24.4)"/><path class="cls-1" d="M157.09,209.08A86.51,86.51,0,0,0,170.89,190c1-1.8-1.9-3.39-2.85-1.58a83.36,83.36,0,0,1-13.28,18.48,1.61,1.61,0,0,0,2.33,2.22Z" transform="translate(-9.01 -24.4)"/><path class="cls-7" d="M39.13,80.82H547.75a2,2,0,0,0,2-1.57,1.28,1.28,0,0,0-.65-1,3,3,0,0,0-1.31-.54H39.13a1.9,1.9,0,0,0-1.3.54,1.79,1.79,0,0,0-.65,1,1.3,1.3,0,0,0,.65,1.07A2.79,2.79,0,0,0,39.13,80.82Z" transform="translate(-9.01 -24.4)"/><path class="cls-7" d="M538.67,69.58c6.23-.12,11.18-4.66,11-10.13s-5.31-9.81-11.54-9.69-11,4.52-11,9.91,4.89,9.86,11.07,9.91Z" transform="translate(-9.01 -24.4)"/><path class="cls-7" d="M498.33,69.58c6.24-.12,11.18-4.66,11-10.13s-5.3-9.81-11.54-9.69-11,4.52-11,9.91,4.9,9.86,11.07,9.91Z" transform="translate(-9.01 -24.4)"/><path class="cls-7" d="M458,69.58c6.24-.12,11.18-4.66,11-10.13s-5.3-9.81-11.54-9.69-11,4.52-11,9.91,4.9,9.86,11.07,9.91Z" transform="translate(-9.01 -24.4)"/><path class="cls-7" d="M39.84,52.89v.79a.83.83,0,0,0,.33.5c.32.28.32.28.64.28s.64.25,1,.25H70.36a3.53,3.53,0,0,0,1.6-.53,1.64,1.64,0,0,0,.09-2.53L72,51.58a2.9,2.9,0,0,0-1.6-.54H41.77a4.05,4.05,0,0,0-1.6.54A10,10,0,0,1,39.84,52.89Z" transform="translate(-9.01 -24.4)"/><path class="cls-7" d="M39.84,59.67v.78a1,1,0,0,0,.33.54c.32.25.32.25.64.25s.64.25,1,.25H70.36A3.85,3.85,0,0,0,72,61,1.67,1.67,0,0,0,72,58.42L72,58.35a2.79,2.79,0,0,0-1.6-.5H41.77a3.85,3.85,0,0,0-1.6.5A9.8,9.8,0,0,1,39.84,59.67Z" transform="translate(-9.01 -24.4)"/><path class="cls-7" d="M39.84,66.44a1.85,1.85,0,0,0,.65,1.32,2.9,2.9,0,0,0,1.6.54H70.68a4.15,4.15,0,0,0,1.61-.54,1.65,1.65,0,0,0,.08-2.53l-.08-.07a2.74,2.74,0,0,0-1.68-.41H42a1.47,1.47,0,0,0-1,.25,1.17,1.17,0,0,0-.64.28c-.33.26-.33.26-.33.51S39.84,66.19,39.84,66.44Z" transform="translate(-9.01 -24.4)"/></svg>