<svg id="Layer_1" data-name="Layer 1" xmlns="http://www.w3.org/2000/svg" xmlns:xlink="http://www.w3.org/1999/xlink" viewBox="0 0 452.87 226.7">
	<defs>
		<style>
			.cls-1{fill:none;}.cls-2{clip-path:url(#clip-path);}.cls-3{fill:#6b6b6b;}.cls-4{fill:#b4b4b4;}.cls-5{fill:#c9c9c9;}.cls-6{fill:#131615;}.cls-7{fill:#2f2e41;}.cls-8{fill:#3f3d56;}.cls-9{fill:#8fbc8b;}.cls-10{fill:#e6e6e6;}.cls-11{fill:#3a4c38;}.cls-12{opacity:0.2;isolation:isolate;}.cls-13{fill:#ffcece;}.cls-14{fill:#ccc;}
		</style>
		<clipPath id="clip-path" transform="translate(-24.96 -84.15)">
			<rect class="cls-1" x="19" y="19" width="489" height="377" />
		</clipPath>
	</defs>
	<g class="cls-2">
		<path class="cls-3" d="M401.55,106.15s-10.65,6-7.58,12.91,46.58,1.25,46.58,1.25-3.06-9.37-8.58-11.24S401.55,106.15,401.55,106.15Z" transform="translate(-24.96 -84.15)" />
		<path class="cls-4" d="M397.4,107.76a20.51,20.51,0,0,1,7-3,46.66,46.66,0,0,1,25.24.8l-.15-.12a28.29,28.29,0,0,1,9,7.63Z" transform="translate(-24.96 -84.15)" />
		<path class="cls-4" d="M444.55,137.31c-.15,2.24-.29,4.48-.44,6.72a111.23,111.23,0,0,1-1.5,14,31,31,0,0,1-4.07,11,14.72,14.72,0,0,1-16,7.15c-4.37-2.52-7.33.71-3,4a32,32,0,0,0,3.09,2.07l2,31.15-36.78-8.12L395,163.81a23.91,23.91,0,0,1-3-3.34c-4.11-5.56-5.53-12.81-5.26-19.77s2.1-13.75,3.91-20.47a53,53,0,0,1,1.67-5.37c.8.33,1.61.64,2.44.9,5.29,1.63,10.91,1.76,16.44,1.76q14.76,0,29.48-1.18a29.3,29.3,0,0,1,4,12.46A59,59,0,0,1,444.55,137.31Z" transform="translate(-24.96 -84.15)" />
		<path class="cls-5" d="M106.14,237.16a16.84,16.84,0,0,0,1.19,6.24,15.62,15.62,0,0,0,1.07,2.22,16.64,16.64,0,0,0,7.41,6.81,16.2,16.2,0,0,0,6.77,1.49H362.44A16.24,16.24,0,0,0,374.06,249a17,17,0,0,0,0-23.68,16.24,16.24,0,0,0-11.62-4.91H122.58A16.3,16.3,0,0,0,111,225.33,16.94,16.94,0,0,0,106.14,237.16Z" transform="translate(-24.96 -84.15)" />
		<path class="cls-6" d="M25,246.73A179.66,179.66,0,0,0,42.2,264.81H460.59a179.66,179.66,0,0,0,17.24-18.08Z" transform="translate(-24.96 -84.15)" />
		<path class="cls-7" d="M138.46,186.27v64h44v-64a2.17,2.17,0,0,0-.41-1.28,2.11,2.11,0,0,0-1.08-.78,2,2,0,0,0-.63-.1h-39.8a2.09,2.09,0,0,0-.81.16,2.15,2.15,0,0,0-1.15,1.17A2.12,2.12,0,0,0,138.46,186.27Zm17.18,22a4.87,4.87,0,0,1,1.4-3.36,4.62,4.62,0,0,1,6.61,0,4.79,4.79,0,0,1,1.4,3.36v7.43a4.84,4.84,0,0,1-1.39,3.37,4.62,4.62,0,0,1-6.63,0,4.84,4.84,0,0,1-1.39-3.37Z" transform="translate(-24.96 -84.15)" />
		<path class="cls-8" d="M138.32,248.27v6.18a1.21,1.21,0,0,0,.35.85,1.16,1.16,0,0,0,.84.36h41.94a1.21,1.21,0,0,0,.84-.35,1.24,1.24,0,0,0,.34-.86v-6.18Z" transform="translate(-24.96 -84.15)" />
		<path class="cls-6" d="M69.17,89.76v117a5.73,5.73,0,0,0,1.62,4,5.5,5.5,0,0,0,3.9,1.65h170.1a5.5,5.5,0,0,0,3.9-1.65,5.67,5.67,0,0,0,1.61-4v-117a5.62,5.62,0,0,0-1.62-4,5.42,5.42,0,0,0-3.89-1.65H74.69a5.46,5.46,0,0,0-3.9,1.65A5.7,5.7,0,0,0,69.17,89.76Z" transform="translate(-24.96 -84.15)" />
		<path class="cls-9" d="M73.16,91.22V205.27A3.12,3.12,0,0,0,74,207.4a2.92,2.92,0,0,0,2.08.88H243.37a2.92,2.92,0,0,0,2.08-.88,3,3,0,0,0,.87-2.13v-114a3.06,3.06,0,0,0-.86-2.13,3,3,0,0,0-2.09-.88H76.11a2.92,2.92,0,0,0-2.08.88A3.07,3.07,0,0,0,73.16,91.22Z" transform="translate(-24.96 -84.15)" />
		<path class="cls-7" d="M107.27,257.12a1.94,1.94,0,0,0,.63.51,1.82,1.82,0,0,0,.79.18H208.2a1.79,1.79,0,0,0,1.42-.69,2,2,0,0,0,.36-.74,1.89,1.89,0,0,0,0-.82l-1.55-7.47a1.84,1.84,0,0,0-.4-.83,1.78,1.78,0,0,0-.74-.53,1.75,1.75,0,0,0-.65-.12H110.23a1.82,1.82,0,0,0-.65.12,1.78,1.78,0,0,0-.74.53,1.84,1.84,0,0,0-.4.83l-1.54,7.47a1.89,1.89,0,0,0,0,.82A2,2,0,0,0,107.27,257.12Z" transform="translate(-24.96 -84.15)" />
		<path class="cls-8" d="M203.18,249.83h2.47a.31.31,0,0,0,.3-.31v-1.26a.31.31,0,0,0-.3-.31h-2.47a.31.31,0,0,0-.3.31v1.26A.31.31,0,0,0,203.18,249.83Z" transform="translate(-24.96 -84.15)" />
		<path class="cls-8" d="M197.05,249.83h2.47a.31.31,0,0,0,.3-.31v-1.26a.31.31,0,0,0-.3-.31h-2.47a.31.31,0,0,0-.3.31v1.26A.31.31,0,0,0,197.05,249.83Z" transform="translate(-24.96 -84.15)" />
		<path class="cls-8" d="M190.92,249.83h2.47a.3.3,0,0,0,.3-.31v-1.26a.3.3,0,0,0-.3-.31h-2.47a.31.31,0,0,0-.3.31v1.26A.31.31,0,0,0,190.92,249.83Z" transform="translate(-24.96 -84.15)" />
		<path class="cls-8" d="M184.79,249.83h2.47a.3.3,0,0,0,.3-.31v-1.26a.3.3,0,0,0-.3-.31h-2.47a.31.31,0,0,0-.3.31v1.26A.31.31,0,0,0,184.79,249.83Z" transform="translate(-24.96 -84.15)" />
		<path class="cls-8" d="M178.66,249.83h2.47a.3.3,0,0,0,.3-.31v-1.26a.3.3,0,0,0-.3-.31h-2.47a.31.31,0,0,0-.3.31v1.26A.31.31,0,0,0,178.66,249.83Z" transform="translate(-24.96 -84.15)" />
		<path class="cls-8" d="M172.53,249.83H175a.3.3,0,0,0,.3-.31v-1.26a.3.3,0,0,0-.3-.31h-2.47a.3.3,0,0,0-.29.31v1.26A.3.3,0,0,0,172.53,249.83Z" transform="translate(-24.96 -84.15)" />
		<path class="cls-8" d="M166.4,249.83h2.47a.3.3,0,0,0,.3-.31v-1.26a.3.3,0,0,0-.3-.31H166.4a.3.3,0,0,0-.29.31v1.26A.3.3,0,0,0,166.4,249.83Z" transform="translate(-24.96 -84.15)" />
		<path class="cls-8" d="M160.28,249.83h2.46a.3.3,0,0,0,.3-.31v-1.26a.3.3,0,0,0-.3-.31h-2.46a.3.3,0,0,0-.3.31v1.26A.3.3,0,0,0,160.28,249.83Z" transform="translate(-24.96 -84.15)" />
		<path class="cls-8" d="M154.15,249.83h2.46a.3.3,0,0,0,.3-.31v-1.26a.3.3,0,0,0-.3-.31h-2.46a.3.3,0,0,0-.3.31v1.26A.3.3,0,0,0,154.15,249.83Z" transform="translate(-24.96 -84.15)" />
		<path class="cls-8" d="M148,249.83h2.46a.3.3,0,0,0,.3-.31v-1.26a.3.3,0,0,0-.3-.31H148a.3.3,0,0,0-.3.31v1.26A.3.3,0,0,0,148,249.83Z" transform="translate(-24.96 -84.15)" />
		<path class="cls-8" d="M141.89,249.83h2.46a.3.3,0,0,0,.3-.31v-1.26a.3.3,0,0,0-.3-.31h-2.46a.3.3,0,0,0-.3.31v1.26A.3.3,0,0,0,141.89,249.83Z" transform="translate(-24.96 -84.15)" />
		<path class="cls-8" d="M135.76,249.83h2.46a.3.3,0,0,0,.3-.31v-1.26a.3.3,0,0,0-.3-.31h-2.46a.3.3,0,0,0-.3.31v1.26A.3.3,0,0,0,135.76,249.83Z" transform="translate(-24.96 -84.15)" />
		<path class="cls-8" d="M129.63,249.83h2.46a.3.3,0,0,0,.3-.31v-1.26a.3.3,0,0,0-.3-.31h-2.46a.3.3,0,0,0-.3.31v1.26A.3.3,0,0,0,129.63,249.83Z" transform="translate(-24.96 -84.15)" />
		<path class="cls-8" d="M123.5,249.83H126a.3.3,0,0,0,.3-.31v-1.26a.3.3,0,0,0-.3-.31H123.5a.3.3,0,0,0-.3.31v1.26A.3.3,0,0,0,123.5,249.83Z" transform="translate(-24.96 -84.15)" />
		<path class="cls-8" d="M117.37,249.83h2.46a.3.3,0,0,0,.3-.31v-1.26a.3.3,0,0,0-.3-.31h-2.46a.3.3,0,0,0-.3.31v1.26A.3.3,0,0,0,117.37,249.83Z" transform="translate(-24.96 -84.15)" />
		<path class="cls-8" d="M111.24,249.83h2.47a.3.3,0,0,0,.29-.31v-1.26a.3.3,0,0,0-.29-.31h-2.47a.3.3,0,0,0-.3.31v1.26A.3.3,0,0,0,111.24,249.83Z" transform="translate(-24.96 -84.15)" />
		<path class="cls-8" d="M203.26,253h2.46a.3.3,0,0,0,.3-.31v-1.26a.29.29,0,0,0-.3-.3h-2.46a.29.29,0,0,0-.3.3v1.26A.3.3,0,0,0,203.26,253Z" transform="translate(-24.96 -84.15)" />
		<path class="cls-8" d="M197.13,253h2.46a.3.3,0,0,0,.3-.31v-1.26a.29.29,0,0,0-.3-.3h-2.46a.29.29,0,0,0-.3.3v1.26A.3.3,0,0,0,197.13,253Z" transform="translate(-24.96 -84.15)" />
		<path class="cls-8" d="M191,253h2.46a.3.3,0,0,0,.3-.31v-1.26a.29.29,0,0,0-.3-.3H191a.29.29,0,0,0-.3.3v1.26A.3.3,0,0,0,191,253Z" transform="translate(-24.96 -84.15)" />
		<path class="cls-8" d="M184.87,253h2.46a.3.3,0,0,0,.3-.31v-1.26a.29.29,0,0,0-.3-.3h-2.46a.29.29,0,0,0-.3.3v1.26A.3.3,0,0,0,184.87,253Z" transform="translate(-24.96 -84.15)" />
		<path class="cls-8" d="M178.74,253h2.46a.3.3,0,0,0,.3-.31v-1.26a.29.29,0,0,0-.3-.3h-2.46a.29.29,0,0,0-.3.3v1.26A.3.3,0,0,0,178.74,253Z" transform="translate(-24.96 -84.15)" />
		<path class="cls-8" d="M172.61,253h2.46a.3.3,0,0,0,.3-.31v-1.26a.29.29,0,0,0-.3-.3h-2.46a.29.29,0,0,0-.3.3v1.26A.3.3,0,0,0,172.61,253Z" transform="translate(-24.96 -84.15)" />
		<path class="cls-8" d="M166.48,253h2.46a.3.3,0,0,0,.3-.31v-1.26a.29.29,0,0,0-.3-.3h-2.46a.29.29,0,0,0-.3.3v1.26A.3.3,0,0,0,166.48,253Z" transform="translate(-24.96 -84.15)" />
		<path class="cls-8" d="M160.35,253h2.46a.3.3,0,0,0,.3-.31v-1.26a.29.29,0,0,0-.3-.3h-2.46a.29.29,0,0,0-.3.3v1.26A.3.3,0,0,0,160.35,253Z" transform="translate(-24.96 -84.15)" />
		<path class="cls-8" d="M154.22,253h2.46a.3.3,0,0,0,.3-.31v-1.26a.29.29,0,0,0-.3-.3h-2.46a.29.29,0,0,0-.3.3v1.26A.3.3,0,0,0,154.22,253Z" transform="translate(-24.96 -84.15)" />
		<path class="cls-8" d="M148.09,253h2.47a.3.3,0,0,0,.29-.31v-1.26a.29.29,0,0,0-.29-.3h-2.47a.29.29,0,0,0-.3.3v1.26A.3.3,0,0,0,148.09,253Z" transform="translate(-24.96 -84.15)" />
		<path class="cls-8" d="M142,253h2.47a.31.31,0,0,0,.3-.31v-1.26a.3.3,0,0,0-.3-.3H142a.29.29,0,0,0-.3.3v1.26A.3.3,0,0,0,142,253Z" transform="translate(-24.96 -84.15)" />
		<path class="cls-8" d="M135.83,253h2.47a.31.31,0,0,0,.3-.31v-1.26a.3.3,0,0,0-.3-.3h-2.47a.29.29,0,0,0-.3.3v1.26A.3.3,0,0,0,135.83,253Z" transform="translate(-24.96 -84.15)" />
		<path class="cls-8" d="M129.7,253h2.47a.31.31,0,0,0,.3-.31v-1.26a.3.3,0,0,0-.3-.3H129.7a.29.29,0,0,0-.3.3v1.26A.3.3,0,0,0,129.7,253Z" transform="translate(-24.96 -84.15)" />
		<path class="cls-8" d="M123.57,253H126a.31.31,0,0,0,.3-.31v-1.26a.3.3,0,0,0-.3-.3h-2.47a.29.29,0,0,0-.3.3v1.26A.3.3,0,0,0,123.57,253Z" transform="translate(-24.96 -84.15)" />
		<path class="cls-8" d="M117.44,253h2.47a.31.31,0,0,0,.3-.31v-1.26a.3.3,0,0,0-.3-.3h-2.47a.3.3,0,0,0-.3.3v1.26A.31.31,0,0,0,117.44,253Z" transform="translate(-24.96 -84.15)" />
		<path class="cls-8" d="M111.31,253h2.47a.31.31,0,0,0,.3-.31v-1.26a.3.3,0,0,0-.3-.3h-2.47a.3.3,0,0,0-.3.3v1.26A.31.31,0,0,0,111.31,253Z" transform="translate(-24.96 -84.15)" />
		<path class="cls-8" d="M152.38,256.7H176.3a.3.3,0,0,0,.3-.31v-1.26a.3.3,0,0,0-.3-.31H152.38a.3.3,0,0,0-.3.31v1.26A.3.3,0,0,0,152.38,256.7Z" transform="translate(-24.96 -84.15)" />
		<path class="cls-6" d="M84.52,103.92H241a.59.59,0,0,0,.43-.19.62.62,0,0,0,.18-.44.63.63,0,0,0-.61-.64H84.52a.63.63,0,0,0-.61.64.62.62,0,0,0,.18.44A.59.59,0,0,0,84.52,103.92Z" transform="translate(-24.96 -84.15)" />
		<path class="cls-6" d="M230.37,99.41a3.8,3.8,0,1,0-3.65-3.79A3.72,3.72,0,0,0,230.37,99.41Z" transform="translate(-24.96 -84.15)" />
		<path class="cls-6" d="M217.77,99.41a3.8,3.8,0,1,0-3.65-3.79A3.72,3.72,0,0,0,217.77,99.41Z" transform="translate(-24.96 -84.15)" />
		<path class="cls-6" d="M205.17,99.41a3.8,3.8,0,1,0-3.65-3.79A3.72,3.72,0,0,0,205.17,99.41Z" transform="translate(-24.96 -84.15)" />
		<path class="cls-6" d="M91.44,93.45a.58.58,0,0,0,0,.26.64.64,0,0,0,.14.22.54.54,0,0,0,.22.15.58.58,0,0,0,.26.06h8.94a.68.68,0,0,0,.47-.21.67.67,0,0,0,.2-.48.7.7,0,0,0-.2-.49.63.63,0,0,0-.47-.2H92.11a.67.67,0,0,0-.48.2A.73.73,0,0,0,91.44,93.45Z" transform="translate(-24.96 -84.15)" />
		<path class="cls-6" d="M91.44,96a.58.58,0,0,0,0,.26.68.68,0,0,0,.14.23.64.64,0,0,0,.22.14.58.58,0,0,0,.26.06h8.94a.68.68,0,0,0,.47-.21.67.67,0,0,0,.2-.48.66.66,0,0,0-.2-.48.64.64,0,0,0-.47-.21H92.11a.67.67,0,0,0-.48.2A.73.73,0,0,0,91.44,96Z" transform="translate(-24.96 -84.15)" />
		<path class="cls-6" d="M91.44,98.63a.71.71,0,0,0,.19.48.68.68,0,0,0,.48.21h8.94a.64.64,0,0,0,.47-.21.68.68,0,0,0,0-1,.64.64,0,0,0-.47-.21H92.11a.75.75,0,0,0-.26,0,.86.86,0,0,0-.22.15.68.68,0,0,0-.14.23A.58.58,0,0,0,91.44,98.63Z" transform="translate(-24.96 -84.15)" />
		<path class="cls-10" d="M94.2,118.66H91a1.8,1.8,0,0,0,0,3.6H94.2a1.8,1.8,0,0,0,0-3.6Z" transform="translate(-24.96 -84.15)" />
		<path class="cls-10" d="M131,118.66h-3.21a1.8,1.8,0,0,0,0,3.6H131a1.8,1.8,0,0,0,0-3.6Z" transform="translate(-24.96 -84.15)" />
		<path class="cls-10" d="M141.4,118.66h-3.21a1.8,1.8,0,0,0,0,3.6h3.21a1.8,1.8,0,0,0,0-3.6Z" transform="translate(-24.96 -84.15)" />
		<path class="cls-10" d="M121,118.36H101a1.8,1.8,0,0,0,0,3.6h20a1.8,1.8,0,0,0,0-3.6Z" transform="translate(-24.96 -84.15)" />
		<path class="cls-10" d="M170,118.36H150a1.8,1.8,0,0,0,0,3.6h20a1.8,1.8,0,0,0,0-3.6Z" transform="translate(-24.96 -84.15)" />
		<path class="cls-10" d="M104,126.78h-3.22a1.8,1.8,0,0,0,0,3.59H104a1.8,1.8,0,0,0,0-3.59Z" transform="translate(-24.96 -84.15)" />
		<path class="cls-10" d="M140.79,126.78h-3.22a1.8,1.8,0,0,0,0,3.59h3.22a1.8,1.8,0,0,0,0-3.59Z" transform="translate(-24.96 -84.15)" />
		<path class="cls-10" d="M151.21,126.78H148a1.8,1.8,0,0,0,0,3.59h3.22a1.8,1.8,0,0,0,0-3.59Z" transform="translate(-24.96 -84.15)" />
		<path class="cls-10" d="M130.78,126.48h-20a1.8,1.8,0,0,0,0,3.59h20a1.8,1.8,0,0,0,0-3.59Z" transform="translate(-24.96 -84.15)" />
		<path class="cls-10" d="M179.82,126.48h-20a1.8,1.8,0,0,0,0,3.59h20a1.8,1.8,0,0,0,0-3.59Z" transform="translate(-24.96 -84.15)" />
		<path class="cls-10" d="M113.82,134.9H110.6a1.8,1.8,0,0,0,0,3.59h3.22a1.8,1.8,0,0,0,0-3.59Z" transform="translate(-24.96 -84.15)" />
		<path class="cls-10" d="M150.59,134.9h-3.21a1.8,1.8,0,0,0,0,3.59h3.21a1.8,1.8,0,0,0,0-3.59Z" transform="translate(-24.96 -84.15)" />
		<path class="cls-10" d="M161,134.9H157.8a1.8,1.8,0,0,0,0,3.59H161a1.8,1.8,0,0,0,0-3.59Z" transform="translate(-24.96 -84.15)" />
		<path class="cls-10" d="M140.59,134.6h-20a1.8,1.8,0,0,0,0,3.59h20a1.8,1.8,0,0,0,0-3.59Z" transform="translate(-24.96 -84.15)" />
		<path class="cls-10" d="M189.63,134.6h-20a1.8,1.8,0,0,0,0,3.59h20a1.8,1.8,0,0,0,0-3.59Z" transform="translate(-24.96 -84.15)" />
		<path class="cls-10" d="M123.63,143h-3.22a1.8,1.8,0,0,0,0,3.59h3.22a1.8,1.8,0,0,0,0-3.59Z" transform="translate(-24.96 -84.15)" />
		<path class="cls-10" d="M160.4,143h-3.21a1.8,1.8,0,0,0,0,3.59h3.21a1.8,1.8,0,0,0,0-3.59Z" transform="translate(-24.96 -84.15)" />
		<path class="cls-10" d="M170.82,143h-3.21a1.8,1.8,0,0,0,0,3.59h3.21a1.8,1.8,0,0,0,0-3.59Z" transform="translate(-24.96 -84.15)" />
		<path class="cls-10" d="M150.4,142.72h-20a1.8,1.8,0,0,0,0,3.59h20a1.8,1.8,0,0,0,0-3.59Z" transform="translate(-24.96 -84.15)" />
		<path class="cls-10" d="M131,175.3h-3.21a1.8,1.8,0,0,0,0,3.6H131a1.8,1.8,0,0,0,0-3.6Z" transform="translate(-24.96 -84.15)" />
		<path class="cls-10" d="M141.4,175.3h-3.21a1.8,1.8,0,0,0,0,3.6h3.21a1.8,1.8,0,0,0,0-3.6Z" transform="translate(-24.96 -84.15)" />
		<path class="cls-10" d="M170,175.6H150a1.8,1.8,0,0,0,0,3.6h20a1.8,1.8,0,0,0,0-3.6Z" transform="translate(-24.96 -84.15)" />
		<path class="cls-10" d="M94.2,175.3H91a1.8,1.8,0,0,0,0,3.6H94.2a1.8,1.8,0,0,0,0-3.6Z" transform="translate(-24.96 -84.15)" />
		<path class="cls-10" d="M121,175.6H101a1.8,1.8,0,0,0,0,3.6h20a1.8,1.8,0,0,0,0-3.6Z" transform="translate(-24.96 -84.15)" />
		<path class="cls-10" d="M104,167.18h-3.22a1.8,1.8,0,0,0,0,3.6H104a1.8,1.8,0,0,0,0-3.6Z" transform="translate(-24.96 -84.15)" />
		<path class="cls-10" d="M140.79,167.18h-3.22a1.8,1.8,0,0,0,0,3.6h3.22a1.8,1.8,0,0,0,0-3.6Z" transform="translate(-24.96 -84.15)" />
		<path class="cls-10" d="M151.21,167.18H148a1.8,1.8,0,0,0,0,3.6h3.22a1.8,1.8,0,0,0,0-3.6Z" transform="translate(-24.96 -84.15)" />
		<path class="cls-10" d="M130.78,167.48h-20a1.8,1.8,0,0,0,0,3.6h20a1.8,1.8,0,0,0,0-3.6Z" transform="translate(-24.96 -84.15)" />
		<path class="cls-10" d="M113.82,159.06H110.6a1.8,1.8,0,0,0,0,3.6h3.22a1.8,1.8,0,0,0,0-3.6Z" transform="translate(-24.96 -84.15)" />
		<path class="cls-10" d="M150.59,159.06h-3.21a1.8,1.8,0,0,0,0,3.6h3.21a1.8,1.8,0,0,0,0-3.6Z" transform="translate(-24.96 -84.15)" />
		<path class="cls-10" d="M161,159.06H157.8a1.8,1.8,0,0,0,0,3.6H161a1.8,1.8,0,0,0,0-3.6Z" transform="translate(-24.96 -84.15)" />
		<path class="cls-10" d="M140.59,159.36h-20a1.8,1.8,0,0,0,0,3.6h20a1.8,1.8,0,0,0,0-3.6Z" transform="translate(-24.96 -84.15)" />
		<path class="cls-10" d="M123.63,150.94h-3.22a1.8,1.8,0,0,0,0,3.6h3.22a1.8,1.8,0,0,0,0-3.6Z" transform="translate(-24.96 -84.15)" />
		<path class="cls-10" d="M160.4,150.94h-3.21a1.8,1.8,0,0,0,0,3.6h3.21a1.8,1.8,0,0,0,0-3.6Z" transform="translate(-24.96 -84.15)" />
		<path class="cls-10" d="M170.82,150.94h-3.21a1.8,1.8,0,0,0,0,3.6h3.21a1.8,1.8,0,0,0,0-3.6Z" transform="translate(-24.96 -84.15)" />
		<path class="cls-10" d="M150.4,151.24h-20a1.8,1.8,0,0,0,0,3.6h20a1.8,1.8,0,0,0,0-3.6Z" transform="translate(-24.96 -84.15)" />
		<path class="cls-11" d="M82.64,292.59l1.13.58a146.63,146.63,0,0,0,28,10.81c.89-10.18,1.76-28.08,2.6-39.17.22-2.88.44-5.29.65-7a9.91,9.91,0,0,1,.54-2.65l0,2.65-.09,7-.54,40a173.93,173.93,0,0,0,40.36,5.93l2.08,0h.71l2.29,0A174.16,174.16,0,0,0,203,305.58c-.3-10.07-.6-27.77-.89-40.77-.06-2.54-.12-4.91-.18-7-.12-4.47-.24-7.69-.36-8.77a2.22,2.22,0,0,1,.24.6,60.87,60.87,0,0,1,1.16,8.17c.22,2.09.43,4.46.64,7,1.15,13.51,2.33,31.88,3.56,39.67A171.86,171.86,0,0,0,228.61,297q5.5-2.34,10.83-5c-.67-4.5-1.38-9.54-2.1-14.76-.56-4.06-1.15-8.22-1.74-12.34-.92-6.36-14.58-50.79-15.45-52.47-.74-1.45-1.44-2.81-2.11-4.06-1.62-3.05-3-5.48-4-7a34,34,0,0,0-17.95-13.87l-.18,0-.13.06-12.54-3.92-1.83-.58-1.23-.38-4.34-3.37-2.36-1.83-2.21-1.72-4.33-3.35-26.79,1.68-5.22,12.79-11.68,4.36L123,191l-.17-.07-.19.05a33.93,33.93,0,0,0-17.94,13.87c-.58.88-1.28,2-2.07,3.45-.67,1.19-1.41,2.55-2.21,4.06-1.13,2.14-2.37,4.56-3.68,7.17l-.88,1.76-1.66,3.36c-1.3,2.66-2.65,5.43-4,8.25-1.17,2.44-2.35,7.46-3.52,13.85-1,5.31-1.92,11.57-2.84,18.08-1.22,8.45.08,18.56-1,26.33Z" transform="translate(-24.96 -84.15)" />
		<path class="cls-12" d="M211.05,246.7l-5.21-20.48-4.6,17.68Z" transform="translate(-24.96 -84.15)" />
		<path class="cls-9" d="M72.45,233.36c1.87,26.16-.06,37.67,10.22,59.24A173.81,173.81,0,0,0,111.8,304c1,.3,2.09.59,3.13.87a174.46,174.46,0,0,0,40.36,5.93l2.08,0h.71l2.29,0A174.16,174.16,0,0,0,203,305.58c1.39-.35,2.78-.72,4.17-1.1A171.86,171.86,0,0,0,228.61,297q5.5-2.34,10.83-5c.81-.41,1.61-.82,2.4-1.25,4.06-7.28,6.37-16.14,6.42-26.78C245.45,245.54,78.67,217.55,72.45,233.36Z" transform="translate(-24.96 -84.15)" />
		<path class="cls-12" d="M72.46,237.84c-.1-1.62-.2-3.29-.33-5,6.22-15.82,173,12.18,175.81,30.52,0,1.68-.08,3.31-.19,4.9C240.93,250.13,82.49,223.52,72.46,237.84Z" transform="translate(-24.96 -84.15)" />
		<path class="cls-6" d="M34.66,246.47a4,4,0,0,0,1.47,2,3.87,3.87,0,0,0,2.32.72l16.24-.42a3.83,3.83,0,0,0,2.31-.84,3.94,3.94,0,0,0,1.36-2.07l2.3-25a5.8,5.8,0,0,0,2.59.54,5.86,5.86,0,0,0,4.14-1.87,6.11,6.11,0,0,0-.21-8.53A5.84,5.84,0,0,0,63,209.28a5.47,5.47,0,0,0-1.07.11,4.07,4.07,0,0,0-1.35-1,4,4,0,0,0-1.63-.33l-25,.66a2.57,2.57,0,0,0-.62.08,3.68,3.68,0,0,0-1.52.65,3.88,3.88,0,0,0-1.12,1.23,4,4,0,0,0-.52,1.6,4.14,4.14,0,0,0,.17,1.68ZM61.13,219.1l1.63-6a4.15,4.15,0,0,0,0-2.1c.08,0,.14,0,.22,0a4.12,4.12,0,0,1,3,1.2,4.36,4.36,0,0,1,1.31,3,4.42,4.42,0,0,1-1.17,3.08,4.19,4.19,0,0,1-3,1.34A4,4,0,0,1,61.13,219.1Z" transform="translate(-24.96 -84.15)" />
		<path class="cls-6" d="M33.31,208.81c.53,3.11,6.52,5.28,13.71,4.91,6.62-.31,12-2.68,13-5.49a3.62,3.62,0,0,0-1.13-.15l-25,.66A3.18,3.18,0,0,0,33.31,208.81Z" transform="translate(-24.96 -84.15)" />
		<path class="cls-3" d="M48.34,232.71l.09,0L52,230.32a.29.29,0,0,0,.1-.12.33.33,0,0,0,0-.15.33.33,0,0,0,0-.14.29.29,0,0,0-.1-.12l-3.67-2.44a.22.22,0,0,0-.11,0,.24.24,0,0,0-.12,0l-.11,0a.24.24,0,0,0-.08.09.37.37,0,0,0,0,.11v.12a.37.37,0,0,0,0,.11.2.2,0,0,0,.09.09l3.27,2.18-3.13,2.09a.34.34,0,0,0-.13.18.3.3,0,0,0,0,.21.33.33,0,0,0,.15.16A.3.3,0,0,0,48.34,232.71Z" transform="translate(-24.96 -84.15)" />
		<path class="cls-3" d="M42.77,233a.29.29,0,0,0,.15-.09.38.38,0,0,0,.08-.17.29.29,0,0,0,0-.18.3.3,0,0,0-.12-.13l-3.25-1.9,3.14-2.38a.34.34,0,0,0,.08-.09.49.49,0,0,0,0-.11.57.57,0,0,0,0-.13.54.54,0,0,0-.05-.11.24.24,0,0,0-.09-.08l-.11,0h-.12l-.11.05-3.52,2.66a.27.27,0,0,0-.09.12.4.4,0,0,0,0,.15.3.3,0,0,0,.05.15.24.24,0,0,0,.1.1l3.66,2.14A.31.31,0,0,0,42.77,233Z" transform="translate(-24.96 -84.15)" />
		<path class="cls-3" d="M48,234.77l.08,0a.24.24,0,0,0,.09-.08.37.37,0,0,0,.05-.11.49.49,0,0,0,0-.12.31.31,0,0,0,0-.12l-5-8.37a.33.33,0,0,0-.19-.14.29.29,0,0,0-.24,0,.33.33,0,0,0-.13.19.34.34,0,0,0,0,.24l5,8.37a.37.37,0,0,0,.15.13A.31.31,0,0,0,48,234.77Z" transform="translate(-24.96 -84.15)" />
		<path class="cls-9" d="M436.26,199.63H381.71v48.71h54.55Z" transform="translate(-24.96 -84.15)" />
		<path class="cls-4" d="M444.35,131.58a30.14,30.14,0,0,0,2.54,17.95c1,2.05,2.21,4.52,1,6.44a4,4,0,0,1-1.29,1.17,4,4,0,0,1-1.65.49,9.43,9.43,0,0,1-3.42-.45" transform="translate(-24.96 -84.15)" />
		<path class="cls-6" d="M396.42,112.81a1.58,1.58,0,1,0-1.84-1.56A1.72,1.72,0,0,0,396.42,112.81Z" transform="translate(-24.96 -84.15)" />
		<path class="cls-6" d="M403.16,113.44a1.58,1.58,0,1,0-1.84-1.56A1.72,1.72,0,0,0,403.16,113.44Z" transform="translate(-24.96 -84.15)" />
		<path class="cls-6" d="M409.91,116.56a1.58,1.58,0,1,0-1.84-1.56A1.71,1.71,0,0,0,409.91,116.56Z" transform="translate(-24.96 -84.15)" />
		<path class="cls-6" d="M417.87,114.69a1.59,1.59,0,1,0-1.84-1.56A1.72,1.72,0,0,0,417.87,114.69Z" transform="translate(-24.96 -84.15)" />
		<path class="cls-6" d="M250.49,144.28c8.93-2.53,18.88.18,25.78,6.38a27.45,27.45,0,0,1,7.89,12.59c1.77,5.78,2.06,11.88,2.24,17.89.21,6.65.38,13.29.57,19.94.19,6.34.21,12.7.62,19,.35,5.31,1.18,10.82,4,15.43a20.89,20.89,0,0,0,11.29,8.74,44.16,44.16,0,0,0,14.63,1.95,110.65,110.65,0,0,0,17-1.38c10.72-1.75,21.31-6.21,27.86-15.42a25.8,25.8,0,0,0,4.85-14.38c.14-6-1.75-11.89-3.83-17.48-2-5.43-4.2-10.78-5.48-16.46a70.54,70.54,0,0,1-1.69-16.2,72.4,72.4,0,0,1,7.5-31.37,62.06,62.06,0,0,1,9.2-13.78c3.78-4.19,8.47-7.65,14-8.79a16.63,16.63,0,0,1,8.2.34c1.13.34,1.62-1.46.49-1.81-5.52-1.68-11.51-.4-16.4,2.52s-8.61,7.18-11.83,11.74a73.65,73.65,0,0,0-10.07,62.43c3.27,10.92,10.39,22.29,7.33,34.11-2.68,10.35-11.95,17.38-21.53,20.56a72.71,72.71,0,0,1-18,3.16,76.8,76.8,0,0,1-15.46-.09c-4.7-.61-9.54-2.08-13.18-5.3-4-3.52-5.83-8.59-6.62-13.79-.9-5.88-.77-12-.94-17.88l-.58-20.27c-.33-11.44,0-24.12-7.35-33.6a30.59,30.59,0,0,0-10.85-8.68,30.28,30.28,0,0,0-13.48-2.95,27.8,27.8,0,0,0-6.72,1,1,1,0,0,0-.61,1.15.89.89,0,0,0,.42.55A.86.86,0,0,0,250.49,144.28Z" transform="translate(-24.96 -84.15)" />
		<path class="cls-13" d="M129.89,155.76a36.08,36.08,0,0,0,22.37,15.77,34.78,34.78,0,0,0,26.61-4.69,35.16,35.16,0,0,0,15.29-22.4,36.5,36.5,0,0,0-5-27l-.28-.43a36.09,36.09,0,0,0-22.44-15.22,34.81,34.81,0,0,0-26.32,4.94A35.2,35.2,0,0,0,125.07,129a36.43,36.43,0,0,0,4.83,26.78Z" transform="translate(-24.96 -84.15)" />
		<path class="cls-6" d="M170.6,169.7c-3.23-2.63-6.62-5.5-7.91-9.47s.66-9.26,4.73-9.8c2.44-.32,5,1.07,7.31.14,3.13-1.27,3.22-5.65,2.79-9.06l-1.75-13.87c10.15,2.51-2.1.62,6.07-5.79,3.21-2.51,6.08-5.84,6.75-9.91S187,103.1,183,102.11c-1.95-.48-4,0-6-.62a5.94,5.94,0,0,1-4.18-5.61A5.85,5.85,0,0,1,174,92.39a5.73,5.73,0,0,1,3-2.12l-10.34,3.31.41-6.71c-1.31,2.66-4.12,4.24-7,5s-5.84.8-8.75,1.26c-14,2.22-25.44,15-26.27,29.33a13.58,13.58,0,0,0-7.49,3.3,13.81,13.81,0,0,0-4.26,7c-1,4.6.35,9.44,2.26,13.78a59,59,0,0,0,16.69,22,22,22,0,0,0,7.44,4.35c2.75.83,29.3.19,31.64-1.44" transform="translate(-24.96 -84.15)" />
		<path class="cls-10" d="M405.61,137.48a18.6,18.6,0,0,1-.6,4.81h0l0,.1c-1.23,4.64-4.19,7.9-7.64,7.9s-6.37-3.24-7.63-7.84c-.09-.32-.16-.64-.23-1s-.15-.75-.21-1.14-.08-.63-.11-1a12.3,12.3,0,0,1-.08-1.37h0a4.7,4.7,0,0,1,0-.53v-.15h0a18.85,18.85,0,0,1,.15-2.37c0-.33.1-.65.16-1s.15-.77.25-1.15.17-.65.27-1a12.88,12.88,0,0,1,.45-1.23c.1-.25.21-.5.32-.74,1.51-3.17,3.94-5.22,6.67-5.22,3.78,0,7,3.93,8,9.29a2,2,0,0,1,0,.24h0A17.79,17.79,0,0,1,405.61,137.48Z" transform="translate(-24.96 -84.15)" />
		<path class="cls-3" d="M390.75,130.17a.52.52,0,0,1-.12.31.45.45,0,0,1-.28.16c.1-.25.21-.5.32-.74A.5.5,0,0,1,390.75,130.17Z" transform="translate(-24.96 -84.15)" />
		<path class="cls-3" d="M398,129.6h-5.4a.49.49,0,0,0,0,1H398a.49.49,0,0,0,0-1Z" transform="translate(-24.96 -84.15)" />
		<path class="cls-3" d="M390.58,132.36a.49.49,0,0,1-.14.34.45.45,0,0,1-.33.14h-.48c.08-.33.17-.65.27-1h.21a.48.48,0,0,1,.33.15A.48.48,0,0,1,390.58,132.36Z" transform="translate(-24.96 -84.15)" />
		<path class="cls-3" d="M392.92,131.87h-.87a.48.48,0,0,0-.47.49.47.47,0,0,0,.47.48h.87a.48.48,0,0,0,.48-.48A.49.49,0,0,0,392.92,131.87Z" transform="translate(-24.96 -84.15)" />
		<path class="cls-3" d="M400.64,131.79h-5.39a.49.49,0,0,0-.48.49.48.48,0,0,0,.48.48h5.39a.47.47,0,0,0,.48-.48A.48.48,0,0,0,400.64,131.79Z" transform="translate(-24.96 -84.15)" />
		<path class="cls-3" d="M392.76,134.06h-.87a.49.49,0,0,0,0,1h.87a.49.49,0,0,0,0-1Z" transform="translate(-24.96 -84.15)" />
		<path class="cls-3" d="M395.57,134.06h-.87a.49.49,0,0,0,0,1h.87a.49.49,0,0,0,0-1Z" transform="translate(-24.96 -84.15)" />
		<path class="cls-3" d="M390.54,134.47a.48.48,0,0,1-.14.34.49.49,0,0,1-.34.14h-.84c0-.33.1-.65.16-1h.68a.38.38,0,0,1,.18,0,.4.4,0,0,1,.15.1.57.57,0,0,1,.11.16A.58.58,0,0,1,390.54,134.47Z" transform="translate(-24.96 -84.15)" />
		<path class="cls-3" d="M403.29,134H397.9a.48.48,0,0,0-.48.49.47.47,0,0,0,.48.48h5.39a.48.48,0,0,0,.48-.48A.49.49,0,0,0,403.29,134Z" transform="translate(-24.96 -84.15)" />
		<path class="cls-14" d="M390.75,137.66a.41.41,0,0,1,0,.19.42.42,0,0,1-.26.26.36.36,0,0,1-.18,0h-.86a.42.42,0,0,1-.33-.13h0a4.7,4.7,0,0,1,0-.53v-.15h0a.53.53,0,0,1,.15-.11.63.63,0,0,1,.19,0h.86a.48.48,0,0,1,.48.48Z" transform="translate(-24.96 -84.15)" />
		<path class="cls-14" d="M398,137.09h-5.4a.49.49,0,0,0,0,1H398a.49.49,0,0,0,0-1Z" transform="translate(-24.96 -84.15)" />
		<path class="cls-14" d="M390.58,139.85a.48.48,0,0,1-.14.34.43.43,0,0,1-.33.15h-.84c0-.31-.08-.63-.11-1h.95a.47.47,0,0,1,.33.14A.48.48,0,0,1,390.58,139.85Z" transform="translate(-24.96 -84.15)" />
		<path class="cls-14" d="M392.92,139.37h-.87a.49.49,0,0,0,0,1h.87a.49.49,0,0,0,0-1Z" transform="translate(-24.96 -84.15)" />
		<path class="cls-14" d="M400.64,139.29h-5.39a.48.48,0,0,0-.48.48.49.49,0,0,0,.48.49h5.39a.48.48,0,0,0,.48-.49A.47.47,0,0,0,400.64,139.29Z" transform="translate(-24.96 -84.15)" />
		<path class="cls-14" d="M392.76,141.56h-.87a.49.49,0,0,0,0,1h.87a.49.49,0,0,0,0-1Z" transform="translate(-24.96 -84.15)" />
		<path class="cls-14" d="M395.57,141.56h-.87a.49.49,0,0,0,0,1h.87a.49.49,0,0,0,0-1Z" transform="translate(-24.96 -84.15)" />
		<path class="cls-14" d="M390.54,142a.52.52,0,0,1-.14.35.49.49,0,0,1-.34.14h-.35c-.09-.32-.16-.64-.23-1h.58a.39.39,0,0,1,.18,0,.31.31,0,0,1,.15.1.46.46,0,0,1,.11.16A.53.53,0,0,1,390.54,142Z" transform="translate(-24.96 -84.15)" />
		<path class="cls-14" d="M403.29,141.48H397.9a.49.49,0,0,0,0,1h5.39a.49.49,0,0,0,0-1Z" transform="translate(-24.96 -84.15)" />
	</g>
</svg>
