<?xml version="1.0" standalone="no"?>
<!DOCTYPE svg PUBLIC "-//W3C//DTD SVG 20010904//EN"
 "http://www.w3.org/TR/2001/REC-SVG-20010904/DTD/svg10.dtd">
<svg version="1.0" xmlns="http://www.w3.org/2000/svg"
 width="1280.000000pt" height="1280.000000pt" viewBox="0 0 1280.000000 1280.000000"
 preserveAspectRatio="xMidYMid meet">
<metadata>
Created by potrace 1.15, written by Peter Selinger 2001-2017
</metadata>
<g transform="translate(0.000000,1280.000000) scale(0.100000,-0.100000)"
fill="#000000" stroke="none">
<path d="M5020 12669 c-36 -4 -90 -11 -120 -14 -351 -39 -831 -166 -1229 -327
-173 -69 -480 -219 -641 -313 -530 -308 -929 -678 -1147 -1065 -117 -207 -162
-470 -113 -659 33 -127 73 -195 179 -302 l96 -97 100 -32 c928 -296 2017 -178
3020 328 716 360 1293 870 1530 1350 64 130 67 144 62 294 -8 211 -57 335
-190 475 -168 176 -461 309 -772 348 -27 4 -79 11 -115 16 -80 11 -570 10
-660 -2z"/>
<path d="M6688 11290 c-170 -256 -435 -523 -758 -766 l-105 -79 26 -95 c15
-52 54 -193 88 -313 34 -120 61 -223 61 -230 -1 -24 -282 -198 -492 -303 -154
-77 -352 -164 -372 -164 -6 0 -40 47 -76 103 -35 56 -115 179 -177 273 l-114
172 -172 -59 c-321 -108 -622 -175 -967 -214 -220 -26 -634 -23 -855 5 -170
21 -375 59 -460 85 -25 7 -45 9 -43 4 6 -17 257 -194 385 -271 444 -265 846
-397 1215 -398 74 0 87 -3 92 -17 3 -10 64 -238 136 -508 167 -626 397 -1484
465 -1735 29 -107 112 -418 185 -690 72 -272 144 -541 160 -598 l28 -103 -121
-162 c-228 -306 -298 -419 -343 -552 -23 -69 -27 -96 -27 -195 0 -103 3 -125
32 -210 36 -107 116 -264 191 -374 536 -795 1702 -1187 2921 -981 224 38 478
104 689 180 41 15 82 29 90 31 10 3 32 -24 67 -83 337 -573 636 -1075 821
-1378 360 -592 727 -1175 739 -1175 2 0 -4 15 -15 33 -67 109 -1178 2188
-1380 2580 l-50 97 27 14 c26 14 27 14 59 -44 18 -33 385 -722 817 -1531 432
-810 789 -1477 794 -1482 16 -16 -13 81 -61 203 -145 368 -639 1413 -1179
2492 -100 199 -191 385 -204 413 l-23 52 57 28 c287 146 603 377 851 625 391
389 624 805 727 1295 25 121 27 147 27 365 -1 219 -3 244 -28 360 -65 295
-165 510 -301 645 -190 191 -409 253 -1050 300 -235 17 -375 31 -379 37 -26
38 -630 876 -820 1138 -93 129 -217 300 -274 380 -58 80 -151 208 -207 285
-414 569 -973 1342 -979 1352 -4 7 16 41 48 82 170 220 273 554 306 996 7 88
11 169 9 180 -3 16 -24 -9 -81 -95z m-434 -1898 c98 -163 276 -457 394 -652
118 -195 325 -537 460 -760 135 -223 282 -466 327 -540 45 -74 232 -382 415
-685 183 -302 369 -611 415 -685 45 -74 159 -263 254 -419 l171 -284 -27 -36
c-56 -74 -237 -244 -347 -326 -239 -178 -459 -292 -765 -396 -79 -27 -149 -49
-155 -49 -6 0 -35 51 -63 113 -29 61 -107 227 -174 367 -67 140 -172 363 -234
495 -62 132 -175 371 -250 530 -75 160 -193 408 -261 553 -68 144 -181 382
-250 530 -70 147 -165 348 -211 447 -47 99 -122 259 -168 355 -46 96 -160 339
-255 540 -95 201 -210 445 -256 542 -46 97 -84 181 -84 187 0 5 24 19 53 29
226 86 598 283 781 414 21 15 42 28 45 28 3 -1 87 -135 185 -298z m2782 -4258
c137 -75 339 -186 449 -246 110 -61 246 -135 303 -166 56 -30 102 -61 102 -69
0 -20 -162 -195 -297 -321 -527 -493 -1267 -872 -2057 -1054 -70 -16 -131 -27
-134 -24 -2 3 1 271 8 595 l14 590 125 42 c258 85 440 166 636 284 198 120
401 284 520 422 39 45 73 82 76 82 3 1 118 -60 255 -135z"/>
</g>
</svg>
