<svg id="Layer_1" data-name="Layer 1" xmlns="http://www.w3.org/2000/svg" viewBox="0 0 270.11 298.4"><defs><style>.cls-1{fill:#2f2e41;}.cls-2{fill:#e6e6e6;}.cls-3{fill:#3a4c38;}.cls-4{fill:#ccc;}.cls-5{fill:#ffb7b7;}.cls-6{opacity:0.1;}.cls-6,.cls-9{isolation:isolate;}.cls-7{fill:#297732;}.cls-8{fill:#8fbc8b;}.cls-9{font-size:17.1px;fill:#fff;font-family:MVBoli, MV Boli;}.cls-10{fill:#f4cece;}</style></defs><path class="cls-1" d="M181.64,215.68h50.13a22.84,22.84,0,0,0,5-.29v-3.27a22.13,22.13,0,0,0-5-.29H181.64a22.12,22.12,0,0,0-5,.29v3.27A22.82,22.82,0,0,0,181.64,215.68Z" transform="translate(-26.2 -33.49)"/><path class="cls-2" d="M120.46,43S95.17,54.9,73.75,62.83C60.47,32.32,41.33,33.5,41.33,33.5l-11.6,8.13,2.09,12.19-.57,19.93-3,10.45,4.36.8,2.47.46.37-.34a26.21,26.21,0,0,0-.73,7.59L144.43,75.3S140.62,57.27,120.46,43Z" transform="translate(-26.2 -33.49)"/><path class="cls-3" d="M89.11,192.69l83-62.39a5,5,0,0,1,7,1.07l7.36,10.13a5.18,5.18,0,0,1-1.06,7.16l-83,62.4a5,5,0,0,1-7-1.07l-7.35-10.13A5.19,5.19,0,0,1,89.11,192.69Z" transform="translate(-26.2 -33.49)"/><path class="cls-3" d="M218.45,136.22l8.9-7.3a4.78,4.78,0,0,1,6.59.43l61.3,69.47a4.4,4.4,0,0,1-.36,6.14,2.43,2.43,0,0,1-.25.2l-8.9,7.3a4.78,4.78,0,0,1-6.59-.42l-61.31-69.46a4.42,4.42,0,0,1,.37-6.16A2.43,2.43,0,0,1,218.45,136.22Z" transform="translate(-26.2 -33.49)"/><path class="cls-3" d="M260.12,169.1l-17.87,12a5.29,5.29,0,0,1-7.3-1.85l-19.72-37.82a5.46,5.46,0,0,1,2.58-7.19L230,127.72a5.28,5.28,0,0,1,7.3,1.85l25.43,32.34A5.47,5.47,0,0,1,260.12,169.1Z" transform="translate(-26.2 -33.49)"/><path class="cls-4" d="M138.43,158,150,173.71a5,5,0,0,0,7.11.23l30.68-29.3a5.19,5.19,0,0,0,.22-7.24l-8.52-9.17a5,5,0,0,0-7.11-.23L138.6,150.79a5.19,5.19,0,0,0-.22,7.24Z" transform="translate(-26.2 -33.49)"/><path class="cls-3" d="M183.05,117a92,92,0,0,1,5.1,8.83c3.14,6.27,4.39,11,7,11.05.84,0,2.27-.86,5.12-2.56,1.07-.66,1.82-1.17,2.2-1.43,2.24-1.53,4.58-3,6.88-4.45l8.55-5.53a22.38,22.38,0,0,0,4.42-2.85,7.48,7.48,0,0,1,2.23-1.46,6,6,0,0,1,1.08-.37c4-.8,9.31,5.26,10.83,7,5.14,5.89,26,34.25,8.12,70.12l-6.64,13.34c0,1.89-2.26,3.41-5,3.41H176.61l-8.39-13.16Q163,180,157.84,161.15a57.57,57.57,0,0,1,14.3-34A72,72,0,0,1,183.05,117Z" transform="translate(-26.2 -33.49)"/><ellipse class="cls-5" cx="178.51" cy="61.02" rx="31.38" ry="29.96"/><path class="cls-4" d="M35,83.85l5.32-1.7c.57-1.12-.47-.41,0-1.49,13.51-29.24,1-47.16,1-47.16L31.7,40.24a.37.37,0,0,0-.07-.16s-1.68-3.87-4.38-1c0,0,8.39,20.7-.95,46.44l10.84,5,4.2-5,.1-.48L34,84.38Z" transform="translate(-26.2 -33.49)"/><path d="M186.85,192.53c-42.79-9.66-82.65,10.36-82.65,10.36l-.11-.1L88.22,188.38l-62-103,15.1.1C83.37,60,142.53,63.46,142.53,63.46,168,92.87,186.85,192.53,186.85,192.53Z" transform="translate(-26.2 -33.49)"/><path class="cls-6" d="M104.09,202.79,88.22,188.38l-62-103,15.1.1S101.6,166.51,104.09,202.79Z" transform="translate(-26.2 -33.49)"/><path class="cls-7" d="M183.05,117s-4,6.47,11.35,33.28,41.7,61.84,41.7,61.84Z" transform="translate(-26.2 -33.49)"/><polygon class="cls-7" points="166.28 104.07 200 83.5 168.44 112.16 166.28 104.07"/><path class="cls-8" d="M196.74,119.36" transform="translate(-26.2 -33.49)"/><path class="cls-3" d="M256.52,268.72l-95.85.5,15.94-53.83h60.2Q246.64,242.06,256.52,268.72Z" transform="translate(-26.2 -33.49)"/><path d="M218.19,268.5l11-.05-2.9,53.84-1.36-9Q221.58,290.89,218.19,268.5Z" transform="translate(-26.2 -33.49)"/><path d="M187.47,269.28l11-.06-2.9,53.85-1.35-9Q190.85,291.67,187.47,269.28Z" transform="translate(-26.2 -33.49)"/><path id="fb7972ee-a107-4b5f-b003-4984de888e25-114" class="cls-1" d="M200.6,331.9l-37.43-2.43V329a14.69,14.69,0,0,1,15.52-13.86h0l22.86,1.47Z" transform="translate(-26.2 -33.49)"/><path id="abe385ac-4f05-433e-b276-ac8b5ab6f7ce-112" class="cls-1" d="M217.35,315.82h22.91a14.74,14.74,0,0,1,14.6,14.85v.48H217.35Z" transform="translate(-26.2 -33.49)"/><path d="M203.26,82.56a4.26,4.26,0,0,1,2.52-.86,8.91,8.91,0,0,1,4.82,1.46c2.1,1.2,4,2.77,4.75,4.77.33.86.53,1.86,1.45,2.29a12.5,12.5,0,0,0,1.33.37c1.55.47,2.1,2,2.46,3.26l1.81,6.53a4.57,4.57,0,0,0,.69,1.62,2.29,2.29,0,0,0,1.74.85,3.66,3.66,0,0,0,1.27-.28l2.39-.86c1.25-.43,2.61-.94,3.18-1.93a3.53,3.53,0,0,0,.29-2,38.19,38.19,0,0,0-.93-6.2l2.74,1.76a3,3,0,0,0,2.27.62,1.66,1.66,0,0,0,1.06-1.07c.49-1.28.14-2.82,1.17-3.88.24-.24.54-.45.76-.71.94-1.13-.17-2.67.21-4a1.85,1.85,0,0,0,2.11-.57,3.14,3.14,0,0,0,.53-1.9c.22-3.86.32-8-2.51-11.17.52-3.14-3-6.58-7-7-1-.1-2.17-.16-2.6-.85a2.23,2.23,0,0,1-.19-1.08,6.67,6.67,0,0,0-1.77-3.26,5.64,5.64,0,0,0-1.19-1.15c-1.29-.8-3.14-.58-4.75-.31-2.95.5-5.88,1-8.79,1.67a7.78,7.78,0,0,1,.07-4.09c.29-1,.83-2,.25-3.06a1.77,1.77,0,0,0-1.45-.85,2,2,0,0,0-1.83,1.07,20.55,20.55,0,0,0-3.36,7.76,8.34,8.34,0,0,0-7.61-.85,7,7,0,0,1-2,.68,3.41,3.41,0,0,1-2.89-1.6c-.8-1.16-1.17-2.56-2.71-3.3a2.52,2.52,0,0,0-2.24,0c-2.05,1.13.5,3.92-1,5.38a3.94,3.94,0,0,1-1.45.75l-3.8,1.32a21.53,21.53,0,0,1-6.36,1.5c-2.52.1-5-.63-7.55-.14a7.41,7.41,0,0,0,3.79,2.15c.89.21,1.84.28,2.72.56a2.52,2.52,0,0,1,1.86,1.55c.19,1-.79,1.88-.6,2.85a2,2,0,0,0,2.17,1.2l-4.49,2.73c-.84.5-1.68,1.21-1.41,2l1.44.39-3.9,5.28a2.9,2.9,0,0,0-.84,1.93,1.45,1.45,0,0,0,1.68,1.08h.1a9.52,9.52,0,0,0-2.17,3.18,1.06,1.06,0,0,0,0,1,1.66,1.66,0,0,0,1.37.47c2.1,0,4-1.37,4.34-3,.64.68,0,1.49-.66,2.18-2.46,2.79-5,5.64-6.3,8.9s-1.25,7.07,1.2,9.86a11.85,11.85,0,0,1,1.46,1.77c.78,1.41.33,3.21,1.55,4.4a50,50,0,0,1,3.55-7.33c-.09.83-.22,1.66-.39,2.47a2,2,0,0,0,1.23,2.12c1.28.43,2.6-.51,3.44-1.37a2.42,2.42,0,0,1,.77-.62,5.67,5.67,0,0,1,1.35-.21,4.44,4.44,0,0,0,3.07-2.57,38,38,0,0,0,3.16-8.91,12.74,12.74,0,0,0,.93,6.82,2.1,2.1,0,0,0,.93,1.16,2.2,2.2,0,0,0,2.31-.43,4,4,0,0,0,1-1.88,80.84,80.84,0,0,0,2.78-12.21l-.29,5.57c-.06,1.26,0,2.72,1.33,3.42.61.3,1.45.49,1.57,1A2.24,2.24,0,0,0,201,98.58c.07-.94-.26-1.88-.14-2.82.13-1.15.92-2.2,1.27-3.32.54-1.71.07-3.51-.13-5.27S201.73,83.76,203.26,82.56Z" transform="translate(-26.2 -33.49)"/><text class="cls-9" transform="matrix(0.65, -0.24, 0.33, 0.94, 42.53, 116.69)">Education Journey</text><path class="cls-10" d="M183.22,116.8l.61-.27s5,4.08,8.68,5.32,10.84,3.32,15.42,2.43,8.45-1.84,10.73-3,4.47-2.56,4.68-2.69.23.42.23.42l-27.81,17.63s-.37.34-1.36-.61S183.22,116.8,183.22,116.8Z" transform="translate(-26.2 -33.49)"/></svg>